<mxfile host="app.diagrams.net" modified="2023-09-19T16:51:22.979Z" agent="Mozilla/5.0 (Windows NT 10.0; Win64; x64) AppleWebKit/537.36 (KHTML, like Gecko) Chrome/116.0.0.0 Safari/537.36 OPR/102.0.0.0" etag="rWLhbxwaEdMCyQYjTbIj" version="21.7.5" type="device">
  <diagram name="Страница — 1" id="Fdg83oSXZRH2WpY5YwqQ">
    <mxGraphModel dx="1323" dy="741" grid="1" gridSize="10" guides="1" tooltips="1" connect="1" arrows="1" fold="1" page="1" pageScale="1" pageWidth="827" pageHeight="1169" math="0" shadow="0">
      <root>
        <mxCell id="0" />
        <mxCell id="1" parent="0" />
        <mxCell id="2q1M_JXiHJTiU6n72Lel-1" value="" style="rounded=0;whiteSpace=wrap;html=1;" vertex="1" parent="1">
          <mxGeometry x="160" y="220" width="480" height="620" as="geometry" />
        </mxCell>
        <mxCell id="2q1M_JXiHJTiU6n72Lel-3" value="Споживач" style="shape=umlActor;verticalLabelPosition=bottom;verticalAlign=top;html=1;outlineConnect=0;" vertex="1" parent="1">
          <mxGeometry x="20" y="350" width="30" height="60" as="geometry" />
        </mxCell>
        <mxCell id="2q1M_JXiHJTiU6n72Lel-4" value="Психолог-споживач" style="shape=umlActor;verticalLabelPosition=bottom;verticalAlign=top;html=1;outlineConnect=0;" vertex="1" parent="1">
          <mxGeometry x="690" y="700" width="30" height="60" as="geometry" />
        </mxCell>
        <mxCell id="2q1M_JXiHJTiU6n72Lel-8" value="Турагентство" style="shape=umlActor;verticalLabelPosition=bottom;verticalAlign=top;html=1;outlineConnect=0;" vertex="1" parent="1">
          <mxGeometry x="350" y="850" width="30" height="60" as="geometry" />
        </mxCell>
        <mxCell id="2q1M_JXiHJTiU6n72Lel-9" value="Перегляд даних про вологість навколишнього середовища та погоду" style="ellipse;whiteSpace=wrap;html=1;" vertex="1" parent="1">
          <mxGeometry x="220" y="240" width="160" height="60" as="geometry" />
        </mxCell>
        <mxCell id="2q1M_JXiHJTiU6n72Lel-11" value="Перегляд статистики емоцій" style="ellipse;whiteSpace=wrap;html=1;" vertex="1" parent="1">
          <mxGeometry x="230" y="390" width="140" height="60" as="geometry" />
        </mxCell>
        <mxCell id="2q1M_JXiHJTiU6n72Lel-12" value="Запис емоцій та відчуттів" style="ellipse;whiteSpace=wrap;html=1;" vertex="1" parent="1">
          <mxGeometry x="230" y="310" width="140" height="60" as="geometry" />
        </mxCell>
        <mxCell id="2q1M_JXiHJTiU6n72Lel-13" value="Отримання контактів психологів" style="ellipse;whiteSpace=wrap;html=1;" vertex="1" parent="1">
          <mxGeometry x="230" y="530" width="140" height="60" as="geometry" />
        </mxCell>
        <mxCell id="2q1M_JXiHJTiU6n72Lel-14" value="Перегляд порад щодо стану" style="ellipse;whiteSpace=wrap;html=1;" vertex="1" parent="1">
          <mxGeometry x="230" y="460" width="140" height="60" as="geometry" />
        </mxCell>
        <mxCell id="2q1M_JXiHJTiU6n72Lel-16" value="Перегляд фото/відео та інформації про скульптури" style="ellipse;whiteSpace=wrap;html=1;" vertex="1" parent="1">
          <mxGeometry x="190" y="670" width="160" height="60" as="geometry" />
        </mxCell>
        <mxCell id="2q1M_JXiHJTiU6n72Lel-18" value="Надсилання повідомлення психологу" style="ellipse;whiteSpace=wrap;html=1;" vertex="1" parent="1">
          <mxGeometry x="330" y="600" width="150" height="60" as="geometry" />
        </mxCell>
        <mxCell id="2q1M_JXiHJTiU6n72Lel-19" value="Відповідь на повідомлення клієнта" style="ellipse;whiteSpace=wrap;html=1;" vertex="1" parent="1">
          <mxGeometry x="470" y="660" width="140" height="60" as="geometry" />
        </mxCell>
        <mxCell id="2q1M_JXiHJTiU6n72Lel-20" value="Розміщення контактів психолога-споживача" style="ellipse;whiteSpace=wrap;html=1;" vertex="1" parent="1">
          <mxGeometry x="470" y="740" width="140" height="60" as="geometry" />
        </mxCell>
        <mxCell id="2q1M_JXiHJTiU6n72Lel-22" value="Публікація статей про скульптури та тури для тур-агентств" style="ellipse;whiteSpace=wrap;html=1;" vertex="1" parent="1">
          <mxGeometry x="285" y="760" width="160" height="60" as="geometry" />
        </mxCell>
        <mxCell id="2q1M_JXiHJTiU6n72Lel-24" value="" style="endArrow=classic;html=1;rounded=0;exitX=1;exitY=0.3333333333333333;exitDx=0;exitDy=0;exitPerimeter=0;entryX=0;entryY=0.5;entryDx=0;entryDy=0;" edge="1" parent="1" source="2q1M_JXiHJTiU6n72Lel-3" target="2q1M_JXiHJTiU6n72Lel-9">
          <mxGeometry width="50" height="50" relative="1" as="geometry">
            <mxPoint x="320" y="570" as="sourcePoint" />
            <mxPoint x="370" y="520" as="targetPoint" />
          </mxGeometry>
        </mxCell>
        <mxCell id="2q1M_JXiHJTiU6n72Lel-25" value="" style="endArrow=classic;html=1;rounded=0;exitX=1;exitY=0.3333333333333333;exitDx=0;exitDy=0;exitPerimeter=0;entryX=0;entryY=0.5;entryDx=0;entryDy=0;" edge="1" parent="1" source="2q1M_JXiHJTiU6n72Lel-3" target="2q1M_JXiHJTiU6n72Lel-12">
          <mxGeometry width="50" height="50" relative="1" as="geometry">
            <mxPoint x="320" y="570" as="sourcePoint" />
            <mxPoint x="370" y="520" as="targetPoint" />
          </mxGeometry>
        </mxCell>
        <mxCell id="2q1M_JXiHJTiU6n72Lel-26" value="" style="endArrow=classic;html=1;rounded=0;exitX=1;exitY=0.3333333333333333;exitDx=0;exitDy=0;exitPerimeter=0;entryX=0;entryY=0.5;entryDx=0;entryDy=0;" edge="1" parent="1" source="2q1M_JXiHJTiU6n72Lel-3" target="2q1M_JXiHJTiU6n72Lel-11">
          <mxGeometry width="50" height="50" relative="1" as="geometry">
            <mxPoint x="320" y="570" as="sourcePoint" />
            <mxPoint x="370" y="520" as="targetPoint" />
          </mxGeometry>
        </mxCell>
        <mxCell id="2q1M_JXiHJTiU6n72Lel-27" value="" style="endArrow=classic;html=1;rounded=0;exitX=1;exitY=0.3333333333333333;exitDx=0;exitDy=0;exitPerimeter=0;entryX=0;entryY=0.5;entryDx=0;entryDy=0;" edge="1" parent="1" source="2q1M_JXiHJTiU6n72Lel-3" target="2q1M_JXiHJTiU6n72Lel-14">
          <mxGeometry width="50" height="50" relative="1" as="geometry">
            <mxPoint x="320" y="570" as="sourcePoint" />
            <mxPoint x="370" y="520" as="targetPoint" />
          </mxGeometry>
        </mxCell>
        <mxCell id="2q1M_JXiHJTiU6n72Lel-28" value="" style="endArrow=classic;html=1;rounded=0;exitX=1;exitY=0.3333333333333333;exitDx=0;exitDy=0;exitPerimeter=0;entryX=0;entryY=0.5;entryDx=0;entryDy=0;" edge="1" parent="1" source="2q1M_JXiHJTiU6n72Lel-3" target="2q1M_JXiHJTiU6n72Lel-13">
          <mxGeometry width="50" height="50" relative="1" as="geometry">
            <mxPoint x="70" y="320" as="sourcePoint" />
            <mxPoint x="370" y="520" as="targetPoint" />
          </mxGeometry>
        </mxCell>
        <mxCell id="2q1M_JXiHJTiU6n72Lel-29" value="" style="endArrow=classic;html=1;rounded=0;exitX=1;exitY=0.3333333333333333;exitDx=0;exitDy=0;exitPerimeter=0;entryX=0;entryY=0.5;entryDx=0;entryDy=0;" edge="1" parent="1" source="2q1M_JXiHJTiU6n72Lel-3" target="2q1M_JXiHJTiU6n72Lel-18">
          <mxGeometry width="50" height="50" relative="1" as="geometry">
            <mxPoint x="320" y="570" as="sourcePoint" />
            <mxPoint x="370" y="520" as="targetPoint" />
            <Array as="points">
              <mxPoint x="150" y="630" />
            </Array>
          </mxGeometry>
        </mxCell>
        <mxCell id="2q1M_JXiHJTiU6n72Lel-30" value="" style="endArrow=classic;html=1;rounded=0;exitX=1;exitY=0.3333333333333333;exitDx=0;exitDy=0;exitPerimeter=0;entryX=0;entryY=0.5;entryDx=0;entryDy=0;" edge="1" parent="1" source="2q1M_JXiHJTiU6n72Lel-3" target="2q1M_JXiHJTiU6n72Lel-16">
          <mxGeometry width="50" height="50" relative="1" as="geometry">
            <mxPoint x="320" y="570" as="sourcePoint" />
            <mxPoint x="370" y="520" as="targetPoint" />
            <Array as="points">
              <mxPoint x="140" y="700" />
            </Array>
          </mxGeometry>
        </mxCell>
        <mxCell id="2q1M_JXiHJTiU6n72Lel-31" value="" style="endArrow=classic;html=1;rounded=0;exitX=0;exitY=0.3333333333333333;exitDx=0;exitDy=0;exitPerimeter=0;entryX=1;entryY=0.5;entryDx=0;entryDy=0;" edge="1" parent="1" source="2q1M_JXiHJTiU6n72Lel-4" target="2q1M_JXiHJTiU6n72Lel-19">
          <mxGeometry width="50" height="50" relative="1" as="geometry">
            <mxPoint x="320" y="570" as="sourcePoint" />
            <mxPoint x="370" y="520" as="targetPoint" />
          </mxGeometry>
        </mxCell>
        <mxCell id="2q1M_JXiHJTiU6n72Lel-32" value="" style="endArrow=classic;html=1;rounded=0;exitX=0.5;exitY=0;exitDx=0;exitDy=0;entryX=1;entryY=0.5;entryDx=0;entryDy=0;dashed=1;" edge="1" parent="1" source="2q1M_JXiHJTiU6n72Lel-18" target="2q1M_JXiHJTiU6n72Lel-13">
          <mxGeometry width="50" height="50" relative="1" as="geometry">
            <mxPoint x="320" y="570" as="sourcePoint" />
            <mxPoint x="370" y="520" as="targetPoint" />
          </mxGeometry>
        </mxCell>
        <mxCell id="2q1M_JXiHJTiU6n72Lel-33" value="&amp;lt;&amp;lt;extend&amp;gt;&amp;gt;" style="edgeLabel;html=1;align=center;verticalAlign=middle;resizable=0;points=[];" vertex="1" connectable="0" parent="2q1M_JXiHJTiU6n72Lel-32">
          <mxGeometry x="-0.3874" relative="1" as="geometry">
            <mxPoint as="offset" />
          </mxGeometry>
        </mxCell>
        <mxCell id="2q1M_JXiHJTiU6n72Lel-34" value="" style="endArrow=classic;html=1;rounded=0;exitX=0;exitY=0.3333333333333333;exitDx=0;exitDy=0;exitPerimeter=0;entryX=1;entryY=0.5;entryDx=0;entryDy=0;" edge="1" parent="1" source="2q1M_JXiHJTiU6n72Lel-4" target="2q1M_JXiHJTiU6n72Lel-20">
          <mxGeometry width="50" height="50" relative="1" as="geometry">
            <mxPoint x="270" y="640" as="sourcePoint" />
            <mxPoint x="740" y="640" as="targetPoint" />
          </mxGeometry>
        </mxCell>
        <mxCell id="2q1M_JXiHJTiU6n72Lel-35" value="" style="endArrow=classic;html=1;rounded=0;exitX=0.5;exitY=0;exitDx=0;exitDy=0;exitPerimeter=0;entryX=0.5;entryY=1;entryDx=0;entryDy=0;" edge="1" parent="1" source="2q1M_JXiHJTiU6n72Lel-8" target="2q1M_JXiHJTiU6n72Lel-22">
          <mxGeometry width="50" height="50" relative="1" as="geometry">
            <mxPoint x="270" y="540" as="sourcePoint" />
            <mxPoint x="320" y="490" as="targetPoint" />
          </mxGeometry>
        </mxCell>
        <mxCell id="2q1M_JXiHJTiU6n72Lel-36" value="" style="endArrow=classic;html=1;rounded=0;exitX=0.5;exitY=0;exitDx=0;exitDy=0;entryX=1;entryY=0.5;entryDx=0;entryDy=0;dashed=1;" edge="1" parent="1" source="2q1M_JXiHJTiU6n72Lel-19" target="2q1M_JXiHJTiU6n72Lel-18">
          <mxGeometry width="50" height="50" relative="1" as="geometry">
            <mxPoint x="555" y="640" as="sourcePoint" />
            <mxPoint x="520" y="600" as="targetPoint" />
          </mxGeometry>
        </mxCell>
        <mxCell id="2q1M_JXiHJTiU6n72Lel-37" value="&amp;lt;&amp;lt;extend&amp;gt;&amp;gt;" style="edgeLabel;html=1;align=center;verticalAlign=middle;resizable=0;points=[];" vertex="1" connectable="0" parent="2q1M_JXiHJTiU6n72Lel-36">
          <mxGeometry x="-0.3874" relative="1" as="geometry">
            <mxPoint y="-11" as="offset" />
          </mxGeometry>
        </mxCell>
        <mxCell id="2q1M_JXiHJTiU6n72Lel-38" value="" style="endArrow=classic;html=1;rounded=0;entryX=1;entryY=0.5;entryDx=0;entryDy=0;dashed=1;exitX=1;exitY=0.5;exitDx=0;exitDy=0;" edge="1" parent="1" source="2q1M_JXiHJTiU6n72Lel-11" target="2q1M_JXiHJTiU6n72Lel-12">
          <mxGeometry width="50" height="50" relative="1" as="geometry">
            <mxPoint x="390" y="420" as="sourcePoint" />
            <mxPoint x="390.0000000000002" y="340" as="targetPoint" />
            <Array as="points">
              <mxPoint x="410" y="420" />
              <mxPoint x="410" y="380" />
              <mxPoint x="410" y="340" />
            </Array>
          </mxGeometry>
        </mxCell>
        <mxCell id="2q1M_JXiHJTiU6n72Lel-39" value="&amp;lt;&amp;lt;include&amp;gt;&amp;gt;" style="edgeLabel;html=1;align=center;verticalAlign=middle;resizable=0;points=[];" vertex="1" connectable="0" parent="2q1M_JXiHJTiU6n72Lel-38">
          <mxGeometry x="-0.3874" relative="1" as="geometry">
            <mxPoint x="10" y="-21" as="offset" />
          </mxGeometry>
        </mxCell>
        <mxCell id="2q1M_JXiHJTiU6n72Lel-40" value="" style="endArrow=classic;html=1;rounded=0;entryX=0.566;entryY=1.025;entryDx=0;entryDy=0;dashed=1;exitX=0.541;exitY=0.05;exitDx=0;exitDy=0;exitPerimeter=0;entryPerimeter=0;" edge="1" parent="1" source="2q1M_JXiHJTiU6n72Lel-22" target="2q1M_JXiHJTiU6n72Lel-16">
          <mxGeometry width="50" height="50" relative="1" as="geometry">
            <mxPoint x="490" y="460" as="sourcePoint" />
            <mxPoint x="490" y="380" as="targetPoint" />
            <Array as="points" />
          </mxGeometry>
        </mxCell>
        <mxCell id="2q1M_JXiHJTiU6n72Lel-41" value="&amp;lt;&amp;lt;include&amp;gt;&amp;gt;" style="edgeLabel;html=1;align=center;verticalAlign=middle;resizable=0;points=[];" vertex="1" connectable="0" parent="2q1M_JXiHJTiU6n72Lel-40">
          <mxGeometry x="-0.3874" relative="1" as="geometry">
            <mxPoint x="6" y="-13" as="offset" />
          </mxGeometry>
        </mxCell>
      </root>
    </mxGraphModel>
  </diagram>
</mxfile>
